<?xml version="1.0" encoding="UTF-8" standalone="no"?>
<svg
   xmlns:dc="http://purl.org/dc/elements/1.1/"
   xmlns:cc="http://creativecommons.org/ns#"
   xmlns:rdf="http://www.w3.org/1999/02/22-rdf-syntax-ns#"
   xmlns:svg="http://www.w3.org/2000/svg"
   xmlns="http://www.w3.org/2000/svg"
   viewBox="163 190 250 250"
   id="svg2"
   version="1.1">
  <metadata
     id="metadata26">
    <rdf:RDF>
      <cc:Work
         rdf:about="">
        <dc:format>image/svg+xml</dc:format>
        <dc:type
           rdf:resource="http://purl.org/dc/dcmitype/StillImage" />
      </cc:Work>
    </rdf:RDF>
  </metadata>
  <defs
     id="defs24" />
  <g
     id="g4">
    <path
         id="path8"
         style="fill:#40ab32;fill-rule:evenodd"
         d="m 287.9625,430.0552 c 0.5317,0 1.0598,-0.0136 1.5899,-0.0207 0.491,-0.007 0.9743,-0.0439 1.4641,-0.0567 1.3039,-0.0343 2.6059,-0.0737 3.899,-0.1511 0.6455,-0.0385 1.285,-0.0975 1.9279,-0.1465 1.3005,-0.0995 2.5991,-0.2044 3.8874,-0.3467 0.6236,-0.0689 1.2407,-0.1582 1.8618,-0.237 1.2937,-0.1641 2.5855,-0.3336 3.8656,-0.5402 0.6069,-0.0981 1.2064,-0.2163 1.8102,-0.3238 1.2796,-0.2279 2.5574,-0.4606 3.8225,-0.7304 0.5919,-0.1262 1.1764,-0.2722 1.7649,-0.4074 1.2631,-0.2903 2.5237,-0.5848 3.7709,-0.9161 0.5743,-0.1528 1.1401,-0.3252 1.711,-0.4862 1.2458,-0.3518 2.4888,-0.7072 3.7171,-1.0995 0.5615,-0.1792 1.114,-0.3779 1.6718,-0.5656 1.2204,-0.4101 2.4384,-0.8243 3.6403,-1.2738 0.5499,-0.2056 1.0902,-0.4306 1.6361,-0.6444 1.1929,-0.4671 2.3837,-0.9377 3.557,-1.4428 0.538,-0.2316 1.0652,-0.4824 1.599,-0.722 1.1627,-0.5218 2.3241,-1.046 3.4659,-1.6049 0.5289,-0.2589 1.046,-0.5369 1.5704,-0.8031 1.1262,-0.5726 2.2507,-1.1466 3.3554,-1.7544 0.5258,-0.2894 1.0394,-0.5984 1.5601,-0.8954 1.0832,-0.6183 2.1651,-1.2368 3.2259,-1.8885 0.5181,-0.3183 1.0227,-0.6559 1.5352,-0.9822 1.0429,-0.6636 2.0852,-1.3263 3.1048,-2.0216 0.508,-0.3464 1.0006,-0.7121 1.5026,-1.0661 1.0015,-0.7062 2.003,-1.4117 2.9804,-2.1487 0.5006,-0.3773 0.9853,-0.7741 1.4794,-1.1591 0.9536,-0.743 1.9077,-1.4842 2.8369,-2.2564 0.4992,-0.4144 0.9808,-0.8489 1.4732,-1.2716 0.8991,-0.7727 1.8002,-1.5429 2.675,-2.3423 0.4918,-0.4492 0.9646,-0.9181 1.4485,-1.3756 0.8487,-0.8028 1.7005,-1.6021 2.5245,-2.4299 0.4825,-0.4844 0.9443,-0.9884 1.4179,-1.4813 0.7968,-0.8286 1.5976,-1.6532 2.3695,-2.5053 0.4725,-0.5216 0.9227,-1.0627 1.3859,-1.5928 0.7435,-0.8515 1.4924,-1.6979 2.211,-2.571 0.4635,-0.5624 0.9025,-1.1446 1.3549,-1.7161 0.6863,-0.8663 1.3791,-1.7266 2.0404,-2.6127 0.4578,-0.6126 0.8887,-1.2444 1.3343,-1.8666 0.6242,-0.8714 1.2566,-1.7362 1.857,-2.6252 0.4425,-0.6556 0.8569,-1.3308 1.2863,-1.9958 0.5695,-0.8822 1.1486,-1.7572 1.6946,-2.6555 0.4204,-0.692 0.8112,-1.4029 1.2172,-2.1042 0.5184,-0.8952 1.0479,-1.783 1.5423,-2.6932 0.3977,-0.7313 0.7631,-1.4811 1.1449,-2.2218 0.466,-0.9034 0.9445,-1.7994 1.387,-2.7167 0.3733,-0.7736 0.7126,-1.5653 1.0687,-2.3482 0.4121,-0.906 0.8387,-1.804 1.2276,-2.7224 0.3473,-0.8201 0.6588,-1.658 0.9876,-2.4874 0.3575,-0.9023 0.7308,-1.796 1.0661,-2.7091 0.3215,-0.8753 0.6041,-1.7682 0.9043,-2.6529 0.301,-0.887 0.6199,-1.766 0.8994,-2.6623 0.2869,-0.9201 0.5335,-1.8573 0.7977,-2.787 0.2506,-0.8819 0.5207,-1.7555 0.7503,-2.6453 0.2503,-0.9689 0.4573,-1.9542 0.6823,-2.9325 0.1996,-0.8671 0.4201,-1.7257 0.5998,-2.5999 0.2149,-1.046 0.3838,-2.1081 0.5701,-3.1643 0.1448,-0.8229 0.3132,-1.6376 0.4405,-2.4667 0.1749,-1.1381 0.3005,-2.2913 0.4411,-3.4401 0.0932,-0.762 0.212,-1.5163 0.2902,-2.2828 0.1304,-1.2773 0.2084,-2.5687 0.2962,-3.8576 0.0443,-0.6512 0.1148,-1.2952 0.1483,-1.9491 0.0992,-1.9483 0.1502,-3.9087 0.1502,-5.8811 0,-1.972 -0.051,-3.9328 -0.1502,-5.8813 -0.0332,-0.6491 -0.1035,-1.2883 -0.1474,-1.9346 -0.0879,-1.2941 -0.1661,-2.5901 -0.2971,-3.8722 -0.0782,-0.7662 -0.1967,-1.5205 -0.29,-2.2824 -0.1408,-1.1486 -0.2664,-2.3023 -0.4413,-3.4407 -0.1267,-0.8255 -0.2945,-1.6367 -0.4388,-2.4565 -0.1863,-1.0602 -0.356,-2.1254 -0.5718,-3.1757 -0.1788,-0.8693 -0.3985,-1.724 -0.5967,-2.5866 -0.2262,-0.9827 -0.4339,-1.9717 -0.6854,-2.9449 -0.2287,-0.8867 -0.4977,-1.7566 -0.7475,-2.6351 -0.265,-0.9337 -0.5125,-1.8745 -0.8008,-2.7986 -0.2772,-0.889 -0.5935,-1.76 -0.8917,-2.6393 -0.3028,-0.893 -0.5879,-1.7932 -0.9119,-2.6762 -0.3334,-0.9085 -0.7053,-1.7986 -1.0613,-2.6966 -0.3303,-0.8334 -0.6432,-1.6753 -0.9922,-2.4993 -0.3875,-0.9145 -0.8121,-1.8088 -1.2225,-2.7111 -0.3581,-0.7874 -0.6993,-1.5834 -1.0744,-2.361 -0.4408,-0.9136 -0.9173,-1.8059 -1.3813,-2.7059 -0.3832,-0.7438 -0.7509,-1.497 -1.15,-2.2314 -0.4924,-0.9057 -1.0193,-1.7893 -1.5352,-2.6805 -0.4088,-0.7061 -0.802,-1.4221 -1.2255,-2.1189 -0.5417,-0.8915 -1.1171,-1.7603 -1.682,-2.6359 -0.4335,-0.6718 -0.8521,-1.3533 -1.2992,-2.0154 -0.5978,-0.8856 -1.2279,-1.747 -1.8496,-2.615 -0.4473,-0.6245 -0.8807,-1.26 -1.3402,-1.8754 -0.6587,-0.8821 -1.349,-1.739 -2.0321,-2.6016 -0.4558,-0.5755 -0.898,-1.162 -1.3646,-1.7286 -0.7163,-0.8702 -1.4627,-1.7135 -2.2034,-2.5619 -0.4652,-0.5327 -0.9179,-1.0764 -1.3924,-1.6005 -0.769,-0.8487 -1.5664,-1.6699 -2.3595,-2.4953 -0.4777,-0.4969 -0.9434,-1.0049 -1.4295,-1.4933 -0.819,-0.8226 -1.6651,-1.6163 -2.5084,-2.414 -0.4896,-0.4632 -0.9675,-0.9371 -1.465,-1.3915 -0.8693,-0.7943 -1.7648,-1.5591 -2.658,-2.327 -0.4978,-0.428 -0.9853,-0.8671 -1.4905,-1.2869 -0.926,-0.769 -1.8773,-1.508 -2.8275,-2.2487 -0.4966,-0.3872 -0.9834,-0.7861 -1.4865,-1.1651 -0.974,-0.7341 -1.9715,-1.4366 -2.969,-2.1404 -0.5066,-0.3575 -1.004,-0.7262 -1.5168,-1.0758 -1.0165,-0.6933 -2.0554,-1.3541 -3.0946,-2.0154 -0.5153,-0.3277 -1.0222,-0.667 -1.5426,-0.9867 -1.061,-0.6517 -2.1427,-1.2705 -3.2256,-1.8882 -0.5207,-0.2973 -1.0343,-0.606 -1.5601,-0.8954 -1.1016,-0.6067 -2.2235,-1.179 -3.3469,-1.7502 -0.5281,-0.2684 -1.0494,-0.5482 -1.582,-0.809 -1.1387,-0.557 -2.2964,-1.0797 -3.4557,-1.6004 -0.5364,-0.2407 -1.0661,-0.4927 -1.6067,-0.7254 -1.173,-0.5054 -2.3638,-0.9754 -3.5564,-1.4422 -0.5459,-0.2141 -1.0862,-0.4389 -1.6361,-0.6446 -1.2019,-0.4496 -2.4199,-0.8638 -3.6403,-1.2739 -0.5578,-0.1877 -1.1103,-0.3864 -1.6718,-0.5655 -1.2283,-0.3924 -2.4713,-0.7478 -3.7171,-1.0996 -0.5709,-0.1613 -1.1367,-0.3334 -1.711,-0.4861 -1.2472,-0.3311 -2.5078,-0.6257 -3.7709,-0.9162 -0.5885,-0.1349 -1.173,-0.2809 -1.7649,-0.4073 -1.2651,-0.2699 -2.5429,-0.5026 -3.8225,-0.7305 -0.6038,-0.1072 -1.2033,-0.2257 -1.8102,-0.3235 -1.2801,-0.2069 -2.5719,-0.3764 -3.8656,-0.5405 -0.6211,-0.0788 -1.2382,-0.1681 -1.8618,-0.237 -1.2883,-0.142 -2.5869,-0.2472 -3.8874,-0.3467 -0.6429,-0.049 -1.2824,-0.108 -1.9279,-0.1465 -1.2931,-0.0774 -2.5951,-0.1168 -3.899,-0.1511 -0.4898,-0.0128 -0.9731,-0.0499 -1.4641,-0.0564 -0.5301,-0.008 -1.0582,-0.021 -1.5899,-0.021 -63.6171,0 -115.5021,51.6872 -115.5021,115.0604 0,63.3707 51.885,115.0576 115.5021,115.0576 z m -92.6124,-144.8154 0,0 c 0.6517,-2.4352 1.3558,-4.8466 2.1643,-7.2065 0.0592,-0.1721 0.1284,-0.3384 0.1882,-0.5099 1.616,-4.6395 3.5195,-9.1304 5.7064,-13.4357 0.2452,-0.483 0.5148,-0.9487 0.7668,-1.4269 1.9287,-3.6596 4.049,-7.187 6.3592,-10.5588 0.491,-0.7169 0.9958,-1.4213 1.503,-2.124 1.6015,-2.2181 3.2649,-4.3832 5.0229,-6.4562 0.4011,-0.4728 0.8252,-0.9221 1.234,-1.387 4.265,-4.8492 8.9504,-9.2639 13.9986,-13.1785 1.7305,-1.3416 3.5016,-2.6252 5.3138,-3.8463 0.4002,-0.2699 0.7889,-0.5576 1.1931,-0.8212 0.1307,-0.0854 0.2676,-0.1619 0.3988,-0.2464 1.2198,-0.7874 2.4514,-1.5565 3.7052,-2.2881 0.0657,-0.0383 0.1346,-0.0717 0.2007,-0.1103 2.3326,-1.3538 4.7301,-2.5917 7.1711,-3.7431 1.506,-0.7106 3.0305,-1.383 4.5748,-2.0132 0.3566,-0.1457 0.7047,-0.3098 1.0635,-0.451 1.4871,-0.5853 2.9914,-1.1324 4.5108,-1.6415 0.0128,-0.005 0.025,-0.009 0.0377,-0.0139 0.7509,-0.2511 1.5168,-0.4629 2.2751,-0.695 0.7906,-0.2421 1.5735,-0.5038 2.372,-0.7249 6.1597,-1.7053 12.553,-2.7745 19.1126,-3.1546 0.1001,-0.006 0.1987,-0.019 0.2993,-0.0247 1.0758,-0.059 2.1632,-0.0675 3.2477,-0.0884 0.5961,-0.0117 1.1863,-0.0488 1.785,-0.0488 53.9744,0 97.9973,47.1858 97.9973,105.0422 0,54.0839 -38.4766,98.8412 -87.5888,104.4422 l -2.5778,-83.7736 c 13.8659,19.6673 22.8081,31.9206 54.3375,47.0241 l 10.9092,-17.348 c -33.0185,-15.6313 -58.2933,-37.0479 -66.5237,-71.1841 18.3146,23.6137 39.4602,45.2993 70.1602,54.9932 l 7.6768,-19.6605 c -37.2744,-15.4412 -68.6466,-35.3854 -78.9468,-71.4092 18.957,23.7322 41.7112,43.3179 73.2897,53.2901 l 10.1015,-20.0457 c -2.374,-0.7642 -4.7185,-1.571 -7.037,-2.4148 -0.7747,-0.2821 -1.5295,-0.5928 -2.298,-0.8836 -1.529,-0.5791 -3.0606,-1.1551 -4.5644,-1.7702 -0.9141,-0.3739 -1.8073,-0.7784 -2.7124,-1.1656 -1.3334,-0.5709 -2.6708,-1.1362 -3.9836,-1.7363 -0.9513,-0.4351 -1.8824,-0.8991 -2.823,-1.3498 -1.2373,-0.5933 -2.478,-1.1815 -3.6963,-1.802 -0.961,-0.4892 -1.9029,-1.0057 -2.8517,-1.5123 -1.1687,-0.6233 -2.3389,-1.2444 -3.4889,-1.8944 -0.9555,-0.54 -1.8938,-1.1046 -2.8366,-1.663 -1.114,-0.6597 -2.2283,-1.3193 -3.3242,-2.0047 -0.9414,-0.5888 -1.8675,-1.1999 -2.7955,-1.8079 -1.0658,-0.6982 -2.1297,-1.3992 -3.1776,-2.1229 -0.9233,-0.6375 -1.8329,-1.2946 -2.742,-1.9522 -1.0236,-0.7402 -2.0429,-1.4862 -3.0484,-2.2522 -0.8974,-0.6834 -1.7832,-1.383 -2.6662,-2.0868 -0.9859,-0.7858 -1.965,-1.5809 -2.9325,-2.3925 -0.8713,-0.7307 -1.7334,-1.4743 -2.59,-2.226 -0.9453,-0.83 -1.8816,-1.6724 -2.8088,-2.5279 -0.845,-0.7798 -1.6835,-1.5693 -2.5132,-2.3709 -0.9085,-0.8771 -1.8054,-1.7711 -2.6955,-2.6745 -0.813,-0.8252 -1.6214,-1.6563 -2.4188,-2.5036 -0.8739,-0.9283 -1.7334,-1.8771 -2.5886,-2.8321 -0.7801,-0.8716 -1.5588,-1.745 -2.323,-2.6387 -0.8396,-0.9814 -1.6622,-1.9865 -2.4828,-2.9954 -0.7447,-0.9153 -1.4899,-1.8292 -2.219,-2.7672 -0.8062,-1.0372 -1.5925,-2.1033 -2.3791,-3.1683 -0.709,-0.9601 -1.4219,-1.915 -2.1152,-2.8981 -0.7725,-1.0956 -1.5222,-2.2238 -2.2748,-3.3483 -0.671,-1.002 -1.3488,-1.9947 -2.0036,-3.0194 -1.2699,-1.9883 -2.5211,-4.004 -3.7303,-6.0789 -21.8155,41.9581 -52.5237,63.4155 -87.2733,75.5594 l 7.2731,20.0454 c 28.6265,-12.6385 54.9598,-28.826 74.9585,-54.8361 -16.1864,41.5351 -45.4054,59.8653 -77.7872,72.5702 l 8.8895,20.0455 c 24.4244,-12.409 48.918,-28.2838 69.0011,-60.3476 -9.6749,41.3906 -34.3938,61.6328 -64.5567,74.2257 l 11.7173,19.6608 c 19.3663,-11.1906 37.5655,-25.2592 52.0514,-48.4154 l -0.7271,82.5422 c -49.437,-5.2687 -88.2637,-50.187 -88.2637,-104.5181 0,-10.0017 1.3433,-19.6721 3.7984,-28.8473 z" />
   </g>
</svg>
